<svg width="15" height="15" fill="none" xmlns="http://www.w3.org/2000/svg"><path d="M7.502 3.653a3.839 3.839 0 0 0-3.845 3.845 3.839 3.839 0 0 0 3.845 3.845 3.839 3.839 0 0 0 3.845-3.845 3.839 3.839 0 0 0-3.845-3.845zm0 6.345a2.504 2.504 0 0 1-2.5-2.5c0-1.378 1.121-2.5 2.5-2.5 1.378 0 2.5 1.122 2.5 2.5 0 1.379-1.125 2.5-2.5 2.5zM12.4 3.496a.895.895 0 0 1-.897.897.897.897 0 1 1 .897-.897zm2.546.91c-.057-1.201-.331-2.265-1.211-3.142C12.859.387 11.795.113 10.594.053c-1.238-.07-4.95-.07-6.188 0C3.208.11 2.144.384 1.264 1.26.384 2.137.113 3.2.053 4.403c-.07 1.238-.07 4.95 0 6.187.057 1.202.331 2.266 1.211 3.143.88.876 1.941 1.15 3.142 1.21 1.238.071 4.95.071 6.188 0 1.201-.056 2.265-.33 3.142-1.21.877-.877 1.151-1.941 1.211-3.143.07-1.238.07-4.946 0-6.184zm-1.6 7.513a2.531 2.531 0 0 1-1.425 1.425c-.987.392-3.33.302-4.42.302-1.091 0-3.437.087-4.42-.302a2.53 2.53 0 0 1-1.426-1.425c-.392-.987-.302-3.33-.302-4.42 0-1.092-.087-3.437.302-4.421A2.53 2.53 0 0 1 3.08 1.652c.987-.391 3.33-.3 4.42-.3 1.092 0 3.437-.088 4.421.3a2.53 2.53 0 0 1 1.426 1.426c.391.987.3 3.33.3 4.42 0 1.091.091 3.437-.3 4.42z" fill="#fff"/></svg>