<svg width="15" height="12" fill="none" xmlns="http://www.w3.org/2000/svg"><path d="M14.716 3.715a.176.176 0 0 1 .284.138v5.99c0 .777-.63 1.407-1.406 1.407H1.406C.63 11.25 0 10.62 0 9.844V3.855c0-.146.167-.228.284-.137.656.51 1.527 1.157 4.515 3.328.618.451 1.661 1.4 2.701 1.394 1.046.01 2.11-.96 2.704-1.394 2.988-2.171 3.856-2.821 4.512-3.331zM7.5 7.5c.68.012 1.658-.855 2.15-1.213 3.888-2.821 4.184-3.067 5.08-3.77a.701.701 0 0 0 .27-.554v-.557C15 .63 14.37 0 13.594 0H1.406C.63 0 0 .63 0 1.406v.557c0 .217.1.419.27.554.896.7 1.192.949 5.08 3.77.492.358 1.47 1.225 2.15 1.213z" fill="#fff"/></svg>